<?xml version="1.0" encoding="UTF-8"?>
<svg width="842px" height="595px" viewBox="0 0 842 595" version="1.1" xmlns="http://www.w3.org/2000/svg" xmlns:xlink="http://www.w3.org/1999/xlink">
    <!-- Generator: Sketch 52.2 (67145) - http://www.bohemiancoding.com/sketch -->
    <title>A4 Copy</title>
    <desc>Created with Sketch.</desc>
    <defs>
        <polygon id="path-1" points="0 0.0694233898 101.965211 0.0694233898 101.965211 113.755932 0 113.755932"></polygon>
        <polygon id="path-3" points="0.228197627 0.147358305 98.0179603 0.147358305 98.0179603 113.352542 0.228197627 113.352542"></polygon>
    </defs>
    <g id="A4-Copy" stroke="none" stroke-width="1" fill="none" fill-rule="evenodd">
        <g id="Group-17" transform="translate(38.000000, 0.000000)">
            <g id="Group-3" transform="translate(0.000000, 481.143220)">
                <mask id="mask-2" fill="white">
                    <use xlink:href="#path-1"></use>
                </mask>
                <g id="Clip-2"></g>
                <path d="M101.804258,17.411959 L90.7251563,31.2203963 C82.5355359,22.3893861 70.8134308,16.9295047 59.4128275,16.9295047 C36.9323156,16.9295047 19.2690851,34.2720403 19.2690851,56.4310505 C19.2690851,78.5900607 36.9323156,96.0935488 59.4128275,96.0935488 C70.6528817,96.0935488 82.2144376,90.9547658 90.7251563,82.7651454 L101.965211,95.2899963 C90.5642037,106.530454 74.346319,113.755973 58.4491292,113.755973 C25.5313088,113.755973 -4.03389831e-05,88.8672234 -4.03389831e-05,56.5920031 C-4.03389831e-05,24.6370742 25.8524071,0.0694233898 59.0917292,0.0694233898 C74.9885156,0.0694233898 90.8857054,6.65274542 101.804258,17.411959" id="Fill-1" fill="#282828" mask="url(#mask-2)"></path>
            </g>
            <polygon id="Fill-4" fill="#282828" points="228.979598 576.91559 228.979598 594.09677 161.377514 594.09677 161.377514 481.693807 180.325541 481.693807 180.325541 576.91559"></polygon>
            <g id="Group-8" transform="translate(284.793220, 481.546610)">
                <mask id="mask-4" fill="white">
                    <use xlink:href="#path-3"></use>
                </mask>
                <g id="Clip-7"></g>
                <path d="M98.0179603,65.982999 C98.0179603,95.3691414 79.5519841,113.352663 49.2033536,113.352663 C18.8547231,113.352663 0.228197627,95.3691414 0.228197627,65.982999 L0.228197627,0.147358305 L19.1762247,0.147358305 L19.1762247,65.982999 C19.1762247,84.9318329 30.8979264,96.3316295 49.3639027,96.3316295 C67.6697332,96.3316295 79.0703366,85.0919786 79.0703366,65.982999 L79.0703366,0.147358305 L98.0179603,0.147358305 L98.0179603,65.982999 Z" id="Fill-6" fill="#282828" mask="url(#mask-4)"></path>
            </g>
            <path d="M469.039912,577.236648 L497.943197,577.236648 C512.715736,577.236648 521.548359,571.455668 521.548359,560.857811 C521.548359,550.90215 512.715736,544.960621 497.943197,544.960621 L469.039912,544.960621 L469.039912,577.236648 Z M469.039912,528.261089 L497.943197,528.261089 C509.986803,528.261089 517.212725,522.640658 517.212725,513.167452 C517.212725,503.693438 509.986803,498.555058 497.943197,498.555058 L469.039912,498.555058 L469.039912,528.261089 Z M498.907298,481.693767 C522.190556,481.693767 536.641997,492.292028 536.641997,509.795113 C536.641997,522.480109 529.094573,531.954526 516.89082,534.844411 C531.985668,537.413197 540.977227,548.172411 540.977227,563.266048 C540.977227,582.535174 525.402346,594.096729 500.030739,594.096729 L450.092288,594.096729 L450.092288,481.693767 L498.907298,481.693767 Z" id="Fill-9" fill="#282828"></path>
            <path d="M670.882952,509.152795 C670.882952,520.553398 662.212087,533.238395 650.329433,546.085151 L621.105454,577.075978 L676.020928,577.075978 L676.020928,594.096608 L596.055752,594.096608 L596.055752,580.286961 L637.483887,535.808392 C645.673104,527.458625 651.132986,518.304903 651.132986,511.882534 C651.132986,502.890571 644.066806,497.43069 632.345104,497.43069 C622.550799,497.43069 611.149389,502.890571 601.675376,511.561436 L594.128759,496.949042 C606.332108,486.993381 620.623403,480.891303 635.075247,480.891303 C656.270559,480.891303 670.882952,491.970808 670.882952,509.152795" id="Fill-11" fill="#5B72B5"></path>
            <polygon id="Fill-13" fill="#5B72B5" points="747.478936 594.096689 747.478936 498.555018 725.479668 498.555018 725.479668 481.693726 766.426559 481.693726 766.426559 594.096689"></polygon>
            <path d="M457.540155,201.535375 L448.249281,218.296625 L438.958406,235.057876 L429.667532,251.818724 L420.376657,268.579975 L411.085782,285.341225 L401.794908,302.102476 L392.504033,318.863324 L383.213159,335.624575 L373.922284,318.863324 L364.631409,302.102476 L355.340535,285.341225 L346.04966,268.579975 L336.758786,251.818724 L327.467911,235.057876 L318.17744,218.296625 L308.886162,201.535375 L299.595691,184.774124 L308.886162,168.012873 L318.17744,151.252025 L327.467911,134.490775 L336.758786,117.729524 L346.04966,100.968273 L355.340535,84.2074254 L364.631409,67.4461746 L373.922284,50.6849237 L383.213159,33.9236729 L392.504033,50.6849237 L383.213159,67.4461746 L373.922284,84.2074254 L364.631409,100.968273 L355.340535,117.729524 L346.04966,134.490775 L336.758786,151.252025 L327.467911,168.012873 L318.17744,184.774124 L327.467911,201.535375 L336.758786,218.296625 L346.04966,235.057876 L355.340535,251.818724 L364.631409,268.579975 L373.922284,285.341225 L383.213159,302.102476 L392.504033,285.341225 L401.794908,268.579975 L411.085782,251.818724 L420.376657,235.057876 L429.667532,218.296625 L438.958406,201.535375 L448.249281,184.774124 L457.540155,168.012873 L466.830626,184.774124 L457.540155,201.535375 Z M383.213159,134.490775 L373.922284,151.252025 L364.631409,168.012873 L355.340535,184.774124 L346.04966,201.535375 L336.758786,184.774124 L346.04966,168.012873 L355.340535,151.252025 L364.631409,134.490775 L373.922284,117.729524 L383.213159,100.968273 L392.504033,117.729524 L401.794908,134.490775 L411.085782,151.252025 L401.794908,168.012873 L392.504033,184.774124 L383.213159,201.535375 L373.922284,218.296625 L383.213159,235.057876 L392.504033,218.296625 L401.794908,201.535375 L411.085782,184.774124 L420.376657,168.012873 L429.667532,184.774124 L420.376657,201.535375 L411.085782,218.296625 L401.794908,235.057876 L392.504033,251.818724 L383.213159,268.579571 L373.922284,251.818724 L364.631409,235.057876 L355.340535,218.296625 L364.631409,201.535375 L373.922284,184.774124 L383.213159,168.012873 L392.504033,151.252025 L383.213159,134.490775 Z M401.794908,67.4461746 L411.085782,84.2074254 L420.376657,100.968273 L429.667532,117.729524 L438.958406,134.490775 L448.249281,151.252025 L438.958406,168.012873 L429.667532,151.252025 L420.376657,134.490775 L411.085782,117.729524 L401.794908,100.968273 L392.504033,84.2074254 L401.794908,67.4461746 Z M476.121501,168.012873 L466.830626,151.252025 L457.540155,134.490775 L448.249281,117.729524 L438.958406,100.968273 L429.667532,84.2074254 L420.376657,67.4461746 L411.085782,50.6849237 L401.794908,33.9236729 L392.504033,17.162422 L383.213159,0.401574576 L373.922284,17.162422 L364.631409,33.9236729 L355.340535,50.6849237 L346.04966,67.4461746 L336.758786,84.2074254 L327.467911,100.968273 L318.17744,117.729524 L308.886162,134.490775 L299.595691,151.252025 L290.304413,168.012873 L281.013942,184.774124 L290.304413,201.535375 L299.595691,218.296625 L308.886162,235.057876 L318.17744,251.818724 L327.467911,268.579975 L336.758786,285.341225 L346.04966,302.102476 L355.340535,318.86292 L364.631409,335.624575 L373.922284,352.385825 L383.213159,369.147076 L392.504033,352.385825 L401.794908,335.624575 L411.085782,318.86292 L420.376657,302.102476 L429.667532,285.341225 L438.958406,268.579975 L448.249281,251.818724 L457.540155,235.057876 L466.830626,218.296625 L476.121501,201.535375 L485.412779,184.774124 L476.121501,168.012873 Z" id="Fill-15" fill="#5B72B5"></path>
        </g>
    </g>
</svg>