<?xml version="1.0" encoding="UTF-8"?>
<svg width="842px" height="595px" viewBox="0 0 842 595" version="1.1" xmlns="http://www.w3.org/2000/svg" xmlns:xlink="http://www.w3.org/1999/xlink">
    <!-- Generator: Sketch 52.2 (67145) - http://www.bohemiancoding.com/sketch -->
    <title>A4 Copy</title>
    <desc>Created with Sketch.</desc>
    <defs>
        <polygon id="path-1" points="0 0.0694233898 101.965211 0.0694233898 101.965211 113.755932 0 113.755932"></polygon>
        <polygon id="path-3" points="0.228197627 0.147358305 98.0179603 0.147358305 98.0179603 113.352542 0.228197627 113.352542"></polygon>
    </defs>
    <g id="A4-Copy" stroke="none" stroke-width="1" fill="none" fill-rule="evenodd">
        <g id="Group-17" transform="translate(38.000000, 0.000000)">
            <g id="Group-3" transform="translate(0.000000, 581.143220)">
                <mask id="mask-2" fill="white">
                    <use xlink:href="#path-1"></use>
                </mask>
                <g id="Clip-2"></g>
            </g>
            <g id="Group-8" transform="translate(284.793220, 581.546610)">
                <mask id="mask-4" fill="white">
                    <use xlink:href="#path-3"></use>
                </mask>
                <g id="Clip-7"></g>
            </g>
            <path d="M503.945025,325.000144 L488.889397,352.000289 L473.833769,379.000433 L458.778141,405.999928 L443.722513,433.000072 L428.666885,460.000217 L413.611256,487.000361 L398.555628,513.999856 L383.5,541 L368.444372,513.999856 L353.388744,487.000361 L338.333115,460.000217 L323.277487,433.000072 L308.221859,405.999928 L293.166231,379.000433 L278.111256,352.000289 L263.054975,325.000144 L248,298 L263.054975,270.999856 L278.111256,244.000361 L293.166231,217.000217 L308.221859,190.000072 L323.277487,162.999928 L338.333115,136.000433 L353.388744,109.000289 L368.444372,82.0001444 L383.5,55 L398.555628,82.0001444 L383.5,109.000289 L368.444372,136.000433 L353.388744,162.999928 L338.333115,190.000072 L323.277487,217.000217 L308.221859,244.000361 L293.166231,270.999856 L278.111256,298 L293.166231,325.000144 L308.221859,352.000289 L323.277487,379.000433 L338.333115,405.999928 L353.388744,433.000072 L368.444372,460.000217 L383.5,487.000361 L398.555628,460.000217 L413.611256,433.000072 L428.666885,405.999928 L443.722513,379.000433 L458.778141,352.000289 L473.833769,325.000144 L488.889397,298 L503.945025,270.999856 L519,298 L503.945025,325.000144 Z M382.5,216.00039 L367.4,243.000585 L352.3,270.00013 L337.2,297.000325 L322.1,324.00052 L307,297.000325 L322.1,270.00013 L337.2,243.000585 L352.3,216.00039 L367.4,189.000195 L382.5,162 L397.6,189.000195 L412.7,216.00039 L427.8,243.000585 L412.7,270.00013 L397.6,297.000325 L382.5,324.00052 L367.4,351.000715 L382.5,378.00091 L397.6,351.000715 L412.7,324.00052 L427.8,297.000325 L442.9,270.00013 L458,297.000325 L442.9,324.00052 L427.8,351.000715 L412.7,378.00091 L397.6,405.000455 L382.5,432 L367.4,405.000455 L352.3,378.00091 L337.2,351.000715 L352.3,324.00052 L367.4,297.000325 L382.5,270.00013 L397.6,243.000585 L382.5,216.00039 Z M413,108 L428,135.000217 L443,161.999783 L458,189 L473,216.000217 L488,243.000433 L473,270 L458,243.000433 L443,216.000217 L428,189 L413,161.999783 L398,135.000217 L413,108 Z M532.999319,270.454072 L517.99929,243.40912 L502.999911,216.363518 L487.999882,189.317916 L472.999852,162.272313 L457.999822,135.227361 L442.999793,108.181759 L427.999763,81.1361565 L412.999734,54.0905541 L397.999704,27.0449516 L382.999674,0 L367.999645,27.0449516 L352.999615,54.0905541 L337.999586,81.1361565 L322.999556,108.181759 L307.999526,135.227361 L292.999497,162.272313 L278.000118,189.317916 L262.999438,216.363518 L248.000059,243.40912 L232.999378,270.454072 L218,297.499675 L232.999378,324.545277 L248.000059,351.59088 L262.999438,378.636482 L278.000118,405.681434 L292.999497,432.727036 L307.999526,459.772639 L322.999556,486.818241 L337.999586,513.862542 L352.999615,540.908795 L367.999645,567.954398 L382.999674,595 L397.999704,567.954398 L412.999734,540.908795 L427.999763,513.862542 L442.999793,486.818241 L457.999822,459.772639 L472.999852,432.727036 L487.999882,405.681434 L502.999911,378.636482 L517.99929,351.59088 L532.999319,324.545277 L548,297.499675 L532.999319,270.454072 Z" id="Fill-15" fill="#5B72B5"></path>
        </g>
    </g>
</svg>